<?xml version="1.0" encoding="UTF-8"?>
<svg xmlns="http://www.w3.org/2000/svg" viewBox="0 0 2048 2048">
  <defs>
    <style>
      .cls-1 {
        fill: #0476d9;
      }

      .cls-1, .cls-2 {
        stroke-width: 0px;
      }

      .cls-2 {
        fill: #fff;
      }
    </style>
  </defs>
  <g id="_レイヤー_3" data-name="レイヤー 3">
    <circle class="cls-1" cx="1024" cy="1024" r="958.7"/>
  </g>
  <g id="_レイヤー_1" data-name="レイヤー 1">
    <polygon class="cls-2" points="456.83 933.51 950.16 1097.95 1443.49 604.63 456.83 933.51"/>
    <polygon class="cls-2" points="1443.49 604.63 950.16 1097.95 1114.6 1591.28 1443.49 604.63"/>
  </g>
  <g id="_レイヤー_2" data-name="レイヤー 2">
    <path class="cls-2" d="M1024,1911.07c-119.71,0-235.89-23.47-345.32-69.75-105.64-44.68-200.5-108.63-281.93-190.06-81.43-81.43-145.38-176.29-190.06-281.93-46.28-109.43-69.75-225.61-69.75-345.32s23.47-235.89,69.75-345.32c44.68-105.64,108.63-200.5,190.06-281.93,81.43-81.43,176.29-145.38,281.93-190.06,109.43-46.28,225.61-69.75,345.32-69.75v205.97c-375.56,0-681.1,305.54-681.1,681.1s305.54,681.1,681.1,681.1,681.1-305.54,681.1-681.1h205.97c0,119.71-23.47,235.89-69.75,345.32-44.68,105.64-108.63,200.5-190.06,281.93-81.43,81.43-176.29,145.38-281.93,190.06-109.43,46.28-225.61,69.75-345.32,69.75Z"/>
    <path class="cls-2" d="M1024,1838.67c-109.94,0-216.64-21.55-317.14-64.06-97.02-41.04-184.14-99.76-258.92-174.55s-133.52-161.9-174.55-258.92c-42.51-100.5-64.06-207.2-64.06-317.14s21.55-216.64,64.06-317.14c41.04-97.02,99.76-184.14,174.55-258.92,74.79-74.79,161.9-133.52,258.92-174.55,100.5-42.51,207.2-64.06,317.14-64.06v189.16c-344.91,0-625.51,280.6-625.51,625.51s280.6,625.51,625.51,625.51,625.51-280.6,625.51-625.51h189.16c0,109.94-21.55,216.64-64.06,317.14-41.04,97.02-99.76,184.14-174.55,258.92-74.79,74.79-161.9,133.52-258.92,174.55-100.5,42.51-207.2,64.06-317.14,64.06Z"/>
  </g>
</svg>