<?xml version="1.0" encoding="UTF-8"?>
<svg xmlns="http://www.w3.org/2000/svg" viewBox="0 0 2048 2048">
  <g id="a" data-name="レイヤー 3">
    <g>
      <path d="m1024,2047.5c-138.17,0-272.21-27.06-398.39-80.43-121.88-51.55-231.33-125.35-325.33-219.34-94-94-167.79-203.45-219.34-325.33C27.56,1296.21.5,1162.17.5,1024s27.06-272.21,80.43-398.39c51.55-121.88,125.35-231.33,219.34-325.33,94-94,203.45-167.79,325.33-219.34C751.79,27.56,885.83.5,1024,.5s272.21,27.06,398.39,80.43c121.88,51.55,231.33,125.35,325.33,219.34,94,94,167.79,203.45,219.34,325.33,53.37,126.18,80.43,260.22,80.43,398.39s-27.06,272.21-80.43,398.39c-51.55,121.88-125.35,231.33-219.34,325.33-94,94-203.45,167.79-325.33,219.34-126.18,53.37-260.22,80.43-398.39,80.43Z" style="fill: #023059;"/>
      <path d="m1024,1c69.41,0,138.78,6.99,206.17,20.78,65.68,13.44,130.29,33.5,192.03,59.61,60.62,25.64,119.08,57.37,173.77,94.32,54.17,36.6,105.11,78.62,151.4,124.92,46.29,46.29,88.32,97.23,124.92,151.4,36.95,54.69,68.68,113.15,94.32,173.77,26.11,61.74,46.17,126.34,59.61,192.03,13.79,67.4,20.78,136.76,20.78,206.17s-6.99,138.78-20.78,206.17c-13.44,65.68-33.5,130.29-59.61,192.03-25.64,60.62-57.37,119.08-94.32,173.77-36.6,54.17-78.62,105.11-124.92,151.4-46.29,46.29-97.23,88.32-151.4,124.92-54.69,36.95-113.15,68.68-173.77,94.32-61.74,26.11-126.34,46.17-192.03,59.61-67.4,13.79-136.76,20.78-206.17,20.78s-138.78-6.99-206.17-20.78c-65.68-13.44-130.29-33.5-192.03-59.61-60.62-25.64-119.08-57.37-173.77-94.32-54.17-36.6-105.11-78.62-151.4-124.92-46.29-46.29-88.32-97.23-124.92-151.4-36.95-54.69-68.68-113.15-94.32-173.77-26.11-61.74-46.17-126.34-59.61-192.03-13.79-67.4-20.78-136.76-20.78-206.17s6.99-138.78,20.78-206.17c13.44-65.68,33.5-130.29,59.61-192.03,25.64-60.62,57.37-119.08,94.32-173.77,36.6-54.17,78.62-105.11,124.92-151.4,46.29-46.29,97.23-88.32,151.4-124.92,54.69-36.95,113.15-68.68,173.77-94.32,61.74-26.11,126.34-46.17,192.03-59.61C885.22,7.99,954.59,1,1024,1m0-1C458.46,0,0,458.46,0,1024s458.46,1024,1024,1024,1024-458.46,1024-1024S1589.54,0,1024,0h0Z"/>
    </g>
  </g>
  <g id="b" data-name="レイヤー 1">
    <polygon points="418.2 927.35 945.13 1102.99 1472.06 576.06 418.2 927.35" style="fill: #fff;"/>
    <polygon points="1472.06 576.06 945.13 1102.99 1120.77 1629.92 1472.06 576.06" style="fill: #fff;"/>
  </g>
  <g id="c" data-name="レイヤー 2">
    <path d="m1024,1971.49c-127.86,0-251.96-25.07-368.84-74.5-112.84-47.73-214.16-116.03-301.14-203.01s-155.28-188.3-203.01-301.14c-49.44-116.88-74.5-240.98-74.5-368.84s25.07-251.96,74.5-368.84c47.73-112.84,116.03-214.16,203.01-301.14s188.3-155.28,301.14-203.01c116.88-49.44,240.98-74.5,368.84-74.5v220c-401.14,0-727.49,326.35-727.49,727.49s326.35,727.49,727.49,727.49,727.49-326.35,727.49-727.49h220c0,127.86-25.07,251.96-74.5,368.84-47.73,112.84-116.03,214.16-203.01,301.14s-188.3,155.28-301.14,203.01c-116.88,49.44-240.98,74.5-368.84,74.5Z" style="fill: #fff;"/>
  </g>
</svg>